/* XPM */
static char * favicon_xpm[] = {
"16 16 128 2",
"  	c #F1F3EF",
". 	c #F2F4F0",
"+ 	c #F6F9F5",
"@ 	c #FCFEFA",
"# 	c #FDFFFB",
"$ 	c #F7FAF5",
"% 	c #F2F5F1",
"& 	c #F1F4F0",
"* 	c #F3F5F1",
"= 	c #ECEEEA",
"- 	c #C3C4C2",
"; 	c #979896",
"> 	c #8B8D8A",
", 	c #8E8F8D",
"' 	c #BEBFBC",
") 	c #E4E6E3",
"! 	c #F4F6F2",
"~ 	c #F0F2EE",
"{ 	c #C5C7C3",
"] 	c #B1B1B1",
"^ 	c #A1A2A1",
"/ 	c #AAABAA",
"( 	c #A3A4A2",
"_ 	c #9A9A98",
": 	c #BCBDBB",
"< 	c #D0D1CF",
"[ 	c #BFC0BE",
"} 	c #E6E7E5",
"| 	c #F6F6F6",
"1 	c #B3B5B1",
"2 	c #F4F5F4",
"3 	c #FFFFFF",
"4 	c #E3E4E2",
"5 	c #D1D2D0",
"6 	c #EDEDEC",
"7 	c #FCFCFC",
"8 	c #E2E2E1",
"9 	c #C5C6C5",
"0 	c #FFFEFF",
"a 	c #F5F7F3",
"b 	c #FEFEFE",
"c 	c #FDFDFD",
"d 	c #EBEBEB",
"e 	c #838482",
"f 	c #787877",
"g 	c #F9F8FC",
"h 	c #D7D8D5",
"i 	c #707170",
"j 	c #CECFCC",
"k 	c #FDFEFD",
"l 	c #EDEEED",
"m 	c #070808",
"n 	c #B0AFB5",
"o 	c #A0A19F",
"p 	c #444344",
"q 	c #FBFCFB",
"r 	c #F8F8F8",
"s 	c #949594",
"t 	c #565655",
"u 	c #A5A4A3",
"v 	c #F9FAF9",
"w 	c #E4E5E4",
"x 	c #4C4D4C",
"y 	c #020202",
"z 	c #58555D",
"A 	c #8F918F",
"B 	c #747574",
"C 	c #C7C7C6",
"D 	c #F4F4F3",
"E 	c #F2F2F2",
"F 	c #6B6B6B",
"G 	c #2A2A29",
"H 	c #7D7E7C",
"I 	c #FCFBFB",
"J 	c #9D9E9D",
"K 	c #131313",
"L 	c #2D2B33",
"M 	c #A8A8A7",
"N 	c #20201F",
"O 	c #000000",
"P 	c #404140",
"Q 	c #C9C9C8",
"R 	c #87868D",
"S 	c #B6B7B5",
"T 	c #B9BAB9",
"U 	c #F6F7F5",
"V 	c #E7E8E6",
"W 	c #454646",
"X 	c #F3F3F2",
"Y 	c #F4F6F3",
"Z 	c #DEDDE4",
"` 	c #E0E0DF",
" .	c #9C9C9C",
"..	c #222322",
"+.	c #1E1E1E",
"@.	c #888888",
"#.	c #E6E8E5",
"$.	c #C9C8CC",
"%.	c #BEC0BA",
"&.	c #C1C3BE",
"*.	c #DDDEDD",
"=.	c #F0F0F0",
"-.	c #FCFCFB",
";.	c #F0F1EF",
">.	c #C1BFC6",
",.	c #E1E3DF",
"'.	c #A5A89F",
").	c #F2F3F2",
"!.	c #FBFBFB",
"~.	c #5C5C5B",
"{.	c #E1E1E5",
"].	c #FAFCF8",
"^.	c #D5D7D5",
"/.	c #545453",
"(.	c #525352",
"_.	c #9E9F9D",
":.	c #EEEFEE",
"<.	c #FFFFFE",
"[.	c #929291",
"}.	c #FEFFFC",
"|.	c #F5F6F3",
"1.	c #E9EAE7",
"2.	c #949593",
"3.	c #3A3B39",
"4.	c #CBCCC9",
"5.	c #CCCCCB",
"6.	c #F8F9F6",
"7.	c #FDFCFF",
"        . + @ # # @ $ % &       ",
"    * + = - ; > , ; ' ) * !   ~ ",
"  ! * { ' ] ^ / ( _ : < [ } + | ",
"*   1 - 2 3 3 4 5 6 3 7 8 9 = 0 ",
"a ' 9 | 3 b 3 3 3 3 c 3 d e f g ",
"h i j 7 3 b 3 3 c k 3 3 l i m n ",
"o p - q 3 3 r s t u v 3 w x y z ",
"A B C D 3 E F y y G H w I J K L ",
"> e } 3 3 M N O O O P Q 3 | / R ",
"S T U 3 3 V W O O O x X 3 Y = Z ",
"j ` r c 3 3  ...m +.@.3 c X #.$.",
"%.&.U 3 3 3 v #.*.w =.-.3 ;.Q >.",
",.'.< d ).!.3 3 3 3 3 =.o W ~.{.",
"].^./.(.~._.:.3 | 3 2 e O K  .3 ",
"a <.{ x K ..[.V X D J m +.o }.0 ",
"U |.<.1.2.3.t S ,.4.A i 5.3 6.7."};
